<svg id="Layer_1" data-name="Layer 1" xmlns="http://www.w3.org/2000/svg" viewBox="0 0 1200 313"><defs><style>.cls-1{fill:#fff;}.cls-2{fill:#4e4e4e;}.cls-3{fill:#ffbebe;}.cls-4,.cls-5,.cls-6{isolation:isolate;}.cls-5{font-size:140px;}.cls-5,.cls-6{font-family:AvenirNextforINTUIT-Regular, AvenirNext forINTUIT;}.cls-6{font-size:60px;}</style></defs><title>metriks-logo</title><rect class="cls-1" width="1200" height="313"/><g id="Layer_2" data-name="Layer 2"><g id="logo"><path class="cls-2" d="M219.6,67.05V26.5A42.14,42.14,0,0,1,260,67.05Z"/><path class="cls-2" d="M216.39,67.05H176A42.18,42.18,0,0,1,216.39,26.5Z"/><path class="cls-2" d="M260,70.28A42.12,42.12,0,0,1,219.6,110.8V70.28Z"/><path class="cls-2" d="M216.39,110.8A42.14,42.14,0,0,1,176,70.28h40.38Z"/><path class="cls-3" d="M306.47,67.05V26.5a42.13,42.13,0,0,1,40.34,40.55Z"/><path class="cls-3" d="M303.17,67.05H262.85A42.16,42.16,0,0,1,303.17,26.5Z"/><path class="cls-3" d="M346.76,70.28a42.1,42.1,0,0,1-40.29,40.52V70.28Z"/><path class="cls-3" d="M303.17,110.8a42.12,42.12,0,0,1-40.32-40.52h40.32Z"/><path class="cls-2" d="M392.72,67.05V26.5a42.15,42.15,0,0,1,40.36,40.55Z"/><path class="cls-2" d="M389.47,67.05H349.13A42.13,42.13,0,0,1,389.47,26.5Z"/><path class="cls-2" d="M433.08,70.28a42.12,42.12,0,0,1-40.36,40.52V70.28Z"/><path class="cls-2" d="M389.47,110.8a42.1,42.1,0,0,1-40.34-40.52h40.34Z"/><path class="cls-3" d="M219.6,155V114.43A42.14,42.14,0,0,1,260,155Z"/><path class="cls-3" d="M216.39,154.89H176a42.18,42.18,0,0,1,40.38-40.56Z"/><path class="cls-3" d="M260,158.06a42.13,42.13,0,0,1-40.36,40.53V158.06Z"/><path class="cls-3" d="M216.39,198.59A42.15,42.15,0,0,1,176,158.06h40.38Z"/><path class="cls-3" d="M306.16,154.89V114.28a42.16,42.16,0,0,1,40.36,40.61Z"/><path class="cls-3" d="M302.94,154.89H262.57a42.14,42.14,0,0,1,40.37-40.56Z"/><path class="cls-3" d="M346.52,158.06a42.13,42.13,0,0,1-40.36,40.53V158.06Z"/><path class="cls-3" d="M302.94,198.59a42.13,42.13,0,0,1-40.37-40.53h40.37Z"/><path class="cls-2" d="M392.72,154.89V114.28a42.16,42.16,0,0,1,40.36,40.61Z"/><path class="cls-2" d="M389.47,154.89H349.13a42.14,42.14,0,0,1,40.34-40.61Z"/><path class="cls-2" d="M433.08,158.06a42.13,42.13,0,0,1-40.36,40.53V158.06Z"/><path class="cls-2" d="M389.47,198.59a42.12,42.12,0,0,1-40.34-40.53h40.34Z"/><path class="cls-2" d="M219.6,242.76V202.2A42.15,42.15,0,0,1,260,242.76Z"/><path class="cls-2" d="M216.39,242.76H176a42.19,42.19,0,0,1,40.38-40.56Z"/><path class="cls-2" d="M260,246A42.12,42.12,0,0,1,219.6,286.5V246Z"/><path class="cls-2" d="M216.39,286.5A42.12,42.12,0,0,1,176,246h40.38Z"/><path class="cls-2" d="M306.47,242.76V202.2a42.14,42.14,0,0,1,40.34,40.56Z"/><path class="cls-2" d="M303.17,242.76H262.85a42.15,42.15,0,0,1,40.32-40.56Z"/><path class="cls-2" d="M346.76,246a42.08,42.08,0,0,1-40.29,40.51V246Z"/><path class="cls-2" d="M303.17,286.5A42.12,42.12,0,0,1,262.81,246h40.36Z"/><path class="cls-2" d="M392.72,242.76V202.2a42.16,42.16,0,0,1,40.36,40.56Z"/><path class="cls-2" d="M389.47,242.76H349.13a42.14,42.14,0,0,1,40.34-40.56Z"/><path class="cls-2" d="M433.08,246a42.12,42.12,0,0,1-40.36,40.51V246Z"/><path class="cls-2" d="M389.47,286.5A42.11,42.11,0,0,1,349.13,246h40.34Z"/></g></g><g class="cls-4"><text class="cls-5" transform="translate(487.47 197.09)">m</text><text class="cls-6" transform="translate(611.09 197.09)"> </text><text class="cls-5" transform="translate(626.09 197.09)">e</text><text class="cls-6" transform="translate(706.17 197.09)"> </text><text class="cls-5" transform="translate(721.17 197.09)">t</text><text class="cls-6" transform="translate(765.55 197.09)"> </text><text class="cls-5" transform="translate(780.55 197.09)">r</text><text class="cls-6" transform="translate(830.94 197.09)"> </text><text class="cls-5" transform="translate(845.94 197.09)">i</text><text class="cls-6" transform="translate(880.94 197.09)"> </text><text class="cls-5" transform="translate(895.94 197.09)">k</text><text class="cls-6" transform="translate(967.34 197.09)"> </text><text class="cls-5" transform="translate(982.34 197.09)">s</text></g></svg>